<svg width="72" height="73" viewBox="0 0 72 73" fill="none" xmlns="http://www.w3.org/2000/svg">
<rect x="2.9873" y="12.6752" width="9.00326" height="8.90322" transform="rotate(-90 2.9873 12.6752)" fill="white"/>
<path d="M67.5804 24.8321C68.1841 24.2461 68.1841 23.296 67.5804 22.71L61.4287 16.738C60.8251 16.152 59.8464 16.152 59.2427 16.738L25.9672 49.0414C25.3636 49.6274 25.3636 50.5775 25.9672 51.1635L32.119 57.1355C32.7226 57.7215 33.7013 57.7215 34.3049 57.1355L67.5804 24.8321Z" fill="white"/>
<path d="M32.6648 60.6926H14.8584V63.6937H32.6648V60.6926Z" fill="white"/>
<path d="M59.3492 16.0883C59.9404 15.5144 60.8989 15.5144 61.4901 16.0883L68.0491 22.4557C68.6403 23.0296 68.6403 23.9601 68.0491 24.5341L66.9336 25.617L58.2337 17.1713L59.3492 16.0883Z" fill="#EF164A"/>
<path fill-rule="evenodd" clip-rule="evenodd" d="M65.7948 26.2696L57.9741 18.6774L57.4427 18.164L32.7128 42.1714L29.9961 39.5341L27.8102 41.6562L40.465 53.9413L42.6509 51.8192L41.242 50.4515L47.5035 44.3729V63.6937H35.3328C34.4434 59.6923 31.5756 57.6916 26.7293 57.6916H20.7938C15.9475 57.6916 13.0797 59.6923 12.1904 63.6937H8.92288V63.6974C2.9874 63.8162 0.0196533 66.8161 0.0196533 72.697H8.92288V69.6959H4.10016C5.25831 67.9734 7.27608 66.6948 9.29385 66.6948H62.3422C64.2793 66.6948 66.2163 67.9734 67.3282 69.6959H20.7938V72.697H71.2455C71.2455 66.6948 68.2777 63.6937 62.3422 63.6937H56.4067V35.7297L65.9582 26.4573L65.7799 26.2841L65.7948 26.2696ZM53.439 38.6108L50.4713 41.4918V63.6937H53.439V38.6108ZM34.8987 44.2935L57.4439 22.4069L61.4407 26.2869L38.8955 48.1735L34.8987 44.2935ZM26.7293 60.6927C28.6664 60.6927 30.6034 61.9712 31.7153 63.6937H15.8079C16.9197 61.9712 18.8568 60.6927 20.7938 60.6927H26.7293Z" fill="#EF164A"/>
<path d="M33.9 49.326L27.0603 42.6861L24.8743 44.8082L31.714 51.4481L33.9 49.326Z" fill="#EF164A"/>
<path d="M36.1214 51.4831L39.7146 54.9713L37.5286 57.0934L33.9355 53.6052L36.1214 51.4831Z" fill="#EF164A"/>
<path d="M11.8906 69.6959H14.8584V72.697H11.8906V69.6959Z" fill="#EF164A"/>
<path d="M21.783 25.0437L23.9689 22.9217L21.783 20.7996L23.969 18.6775L26.1549 20.7996L28.3409 18.6774L30.5268 20.7995L28.3408 22.9217L30.5268 25.0438L28.3409 27.1659L26.1549 25.0437L23.969 27.1658L21.783 25.0437Z" fill="#EF164A"/>
<path d="M7.60599 35.805L5.42004 37.9271L7.60599 40.0492L5.42004 42.1713L7.60599 44.2934L9.79194 42.1713L11.9779 44.2934L14.1638 42.1713L11.9779 40.0492L14.1638 37.9271L11.9779 35.805L9.79194 37.9271L7.60599 35.805Z" fill="#EF164A"/>
<path d="M2.98758 3.67199V0.670898H11.8908V3.67198L14.8585 3.67199V12.6752H11.8908V15.6763H2.98758V12.6752L2.98758 9.67416H5.95532V12.6752H8.92306V9.67416H11.8908V6.67307H8.92306V3.67199H5.95532V6.67307H2.98758V12.6752L0.0196533 12.6747V3.67139L2.98758 3.67199Z" fill="#EF164A"/>
</svg>
