<svg width="74" height="69" viewBox="0 0 74 69" fill="none" xmlns="http://www.w3.org/2000/svg">
<path d="M51.8141 3.50134C46.777 3.50134 42.6937 7.30307 42.6937 11.9927V17.6537C42.6937 22.3433 46.777 26.145 51.8141 26.145H63.9745C69.0116 26.145 73.0949 22.3433 73.0949 17.6537V11.9927C73.0949 7.30307 69.0116 3.50134 63.9745 3.50134H51.8141Z" fill="white"/>
<path d="M9.25243 20.4841C4.2154 20.4841 0.13208 24.2858 0.13208 28.9755V40.2973C0.13208 44.987 4.2154 48.7887 9.25243 48.7887H24.453C29.49 48.7887 33.5734 44.987 33.5734 40.2973V28.9755C33.5734 24.2858 29.4901 20.4841 24.453 20.4841H9.25243Z" fill="white"/>
<rect x="57.8943" y="3.50134" width="15.2006" height="8.49139" fill="white"/>
<path d="M42.6938 14.8232C42.6938 9.16231 45.7339 6.33185 51.8141 6.33185H57.8943V9.16231L51.8141 9.16231C48.774 9.16231 45.7339 11.9928 45.7339 14.8232V23.3146H42.6938V14.8232Z" fill="#EF164A"/>
<path d="M45.7339 26.1451H42.6938V23.3146H39.6536V28.9755H36.6135V31.806H39.6536V28.9755H45.7339V26.1451Z" fill="#EF164A"/>
<path d="M73.0949 17.6537C73.0949 23.3146 70.0548 26.1451 63.9746 26.1451H45.7339V23.3146H63.9746C67.0147 23.3146 70.0548 20.4842 70.0548 17.6537V14.8232H73.0949V17.6537Z" fill="#EF164A"/>
<path d="M54.8542 17.6537H51.8141V20.4842H54.8542V17.6537Z" fill="#EF164A"/>
<path d="M60.9345 17.6537H57.8943V20.4842H60.9345V17.6537Z" fill="#EF164A"/>
<path d="M13.599 29.4902H16.9658V32.578H13.599V29.4902Z" fill="#EF164A"/>
<path d="M13.599 38.7535H23.6993V41.8413H13.599V38.7535Z" fill="#EF164A"/>
<path d="M10.2322 35.6657H13.5989L13.599 38.7535L10.2322 38.7535V35.6657Z" fill="#EF164A"/>
<path d="M23.6992 35.6657H27.0659V38.7535L23.6993 38.7535L23.6992 35.6657Z" fill="#EF164A"/>
<path d="M20.3325 29.4902H23.6993V32.578H20.3325V29.4902Z" fill="#EF164A"/>
<path d="M3.1722 32.7494V39.0394H0.13208V32.7494C0.13208 26.4595 3.44863 23.3146 10.0816 23.3146H23.3475L23.3474 26.145H10.0816C6.7651 26.1451 3.1722 29.6045 3.1722 32.7494Z" fill="#EF164A"/>
<path d="M10.0817 48.7887C3.44874 48.7887 0.13208 45.3293 0.13208 39.0394H3.1722C3.1722 43.1278 6.21232 45.9583 10.6344 45.9583L30.5333 45.9583V48.7887L10.0817 48.7887Z" fill="#EF164A"/>
<path d="M36.6135 48.7887H33.5734V32.7494C33.5734 26.145 30.5333 23.3146 23.3475 23.3146L23.3474 26.145C27.4931 26.145 30.5333 28.9755 30.5333 32.7494V48.7887H33.5734V51.6192L36.6135 51.6192V48.7887Z" fill="#EF164A"/>
<path d="M30.5332 11.9928C27.4931 11.9928 24.453 14.8232 24.453 17.6537V23.3146H21.4128V17.6537C21.4128 11.9928 24.453 9.16229 30.5332 9.16229H45.7338V11.9928L30.5332 11.9928Z" fill="#EF164A"/>
<path d="M21.4128 60.1106C21.4128 65.7715 24.453 68.602 30.5332 68.602H36.6134V65.7715H30.5332C27.4931 65.7715 24.453 62.9411 24.453 60.1106V45.9583H21.4128V60.1106Z" fill="#EF164A"/>
<path d="M48.7739 60.1106C48.7739 62.9411 45.7338 65.7715 42.6937 65.7715V68.602C48.7739 68.602 51.814 65.7715 51.814 60.1106V26.1451H48.7739V60.1106Z" fill="#EF164A"/>
<path d="M39.6535 60.1106H33.5733V62.9411H39.6535V60.1106Z" fill="#EF164A"/>
<path d="M60.9346 3.50136V0.670898H70.0549V3.50136L73.0951 3.50136V11.9927H70.0549V14.8232H60.9346V11.9927L60.9346 9.16228H63.9747V11.9927H67.0148V9.16228H70.0549V6.33182H67.0148V3.50136H63.9747V6.33182H60.9346V11.9927L57.8943 11.9922V3.5008L60.9346 3.50136Z" fill="#EF164A"/>
</svg>
