<svg width="112" height="74" viewBox="0 0 112 74" fill="none" xmlns="http://www.w3.org/2000/svg">
<path d="M30.3937 12.6536C30.3937 7.26805 34.7595 2.90222 40.145 2.90222H49.1365C54.522 2.90222 58.8879 7.26805 58.8879 12.6536V20.3153H30.3937V12.6536Z" fill="#EF164A"/>
<path d="M30.7031 20.3153C24.0618 20.3153 20.8958 23.2175 20.8958 26.9903V53.9926C20.8958 59.282 24.5407 60.9458 29.037 60.9458H53.2652C53.2738 60.9459 53.2824 60.9459 53.2909 60.9459H65.6723C67.1711 60.9459 68.3861 59.5166 68.3861 57.7535V46.7252C68.3861 44.9621 67.1711 43.5328 65.6723 43.5328H62.054V26.9903C62.054 21.701 60.471 20.3153 55.9748 20.3153H30.7031Z" fill="#EF164A"/>
<path fill-rule="evenodd" clip-rule="evenodd" d="M30.3938 20.3153L55.722 20.3153C58.888 20.3153 62.054 23.2175 62.054 26.1197V37.7285L46.2239 37.7285V40.6306L62.054 40.6306V43.5328L46.2239 43.5328V46.435H62.054V50.7883C62.054 51.5897 62.7628 52.2394 63.6371 52.2394C64.5113 52.2394 65.2201 51.5897 65.2201 50.7883V46.435H68.3863V58.0438H55.7218V60.946L93.714 60.9459V58.0438H90.5482V43.5328C90.5482 37.7285 87.3822 34.8263 81.0502 34.8263H71.5519C69.8035 34.8265 68.3863 36.1257 68.3863 37.7285V43.5328H65.2201V26.1197C65.2201 20.3153 62.054 17.4131 55.722 17.4131H30.3938C24.0618 17.4131 20.8958 20.3153 20.8958 26.1197L20.8958 58.0438C19.1472 58.0438 17.7297 59.3431 17.7297 60.9459H46.2239V58.0438H24.0618V46.435H43.0579V43.5328L24.0618 43.5328V40.6306L43.0579 40.6306V37.7285L24.0618 37.7285L24.0618 26.1197C24.0618 23.2175 27.2278 20.3153 30.3938 20.3153ZM87.3822 49.3372V43.5328C87.3822 40.6306 84.2162 37.7285 81.0502 37.7285H71.5523V58.0438H87.3822V52.2394H77.8841C77.8841 50.6366 79.3016 49.3372 81.0502 49.3372H87.3822Z" fill="white"/>
<path d="M52.556 58.0438H49.39V60.9459H52.556V58.0438Z" fill="white"/>
<path d="M43.0578 0H46.2238V5.80437H43.0578V0Z" fill="white"/>
<path d="M39.8917 8.70656C38.1432 8.70656 36.7257 10.0059 36.7257 11.6087V20.3153H39.8917V11.6087H49.3898V20.3153H52.5558V11.6087C52.5558 10.0059 51.1384 8.70656 49.3898 8.70656H39.8917Z" fill="white"/>
<path d="M30.3937 2.90219H27.2277V5.80437H30.3937V8.70656H33.5597V5.80437H30.3937V2.90219Z" fill="white"/>
<path d="M58.8879 5.80437H55.7219V8.70656H58.8879V5.80437Z" fill="white"/>
<path d="M58.8879 5.80437H62.0539V2.90219H58.8879V5.80437Z" fill="white"/>
<path d="M33.5597 14.5109V11.6087H27.2277V14.5109H33.5597Z" fill="white"/>
<path d="M62.0539 11.6087V14.5109H55.7219V11.6087H62.0539Z" fill="white"/>
<path d="M31.9767 69.6525C36.3481 69.6525 39.8918 66.4042 39.8918 62.3971C39.8918 58.39 36.3481 55.1416 31.9767 55.1416C27.6053 55.1416 24.0616 58.39 24.0616 62.3971C24.0616 66.4042 27.6053 69.6525 31.9767 69.6525Z" fill="white"/>
<path d="M73.135 69.6525C77.5063 69.6525 81.05 66.4042 81.05 62.3971C81.05 58.39 77.5063 55.1416 73.135 55.1416C68.7636 55.1416 65.2199 58.39 65.2199 62.3971C65.2199 66.4042 68.7636 69.6525 73.135 69.6525Z" fill="white"/>
<path d="M31.9767 66.7503C34.5995 66.7503 36.7257 64.8013 36.7257 62.397C36.7257 59.9928 34.5995 58.0438 31.9767 58.0438C29.3539 58.0438 27.2277 59.9928 27.2277 62.397C27.2277 64.8013 29.3539 66.7503 31.9767 66.7503Z" fill="#EF164A"/>
<path d="M73.135 66.7503C75.7578 66.7503 77.884 64.8013 77.884 62.397C77.884 59.9928 75.7578 58.0438 73.135 58.0438C70.5122 58.0438 68.3859 59.9928 68.3859 62.397C68.3859 64.8013 70.5122 66.7503 73.135 66.7503Z" fill="#EF164A"/>
<path d="M39.8923 37.7284V34.8262H49.3904V37.7284L52.5564 37.7284V46.435H49.3904V49.3372H39.8923V46.435L39.8923 43.5328H43.0583V46.435H46.2243V43.5328H49.3904V40.6306H46.2243V37.7284H43.0583V40.6306H39.8923V46.435L36.7261 46.4344V37.7278L39.8923 37.7284Z" fill="white"/>
</svg>
